<svg xmlns="http://www.w3.org/2000/svg" version="1.1" xmlns:xlink="http://www.w3.org/1999/xlink" xmlns:svgjs="http://svgjs.dev/svgjs" width="2000" height="1247" viewBox="0 0 2000 1247"><g transform="matrix(1,0,0,1,-1.2121212121212466,0.5906404843171913)"><svg viewBox="0 0 396 247" data-background-color="#ffffff" preserveAspectRatio="xMidYMid meet" height="1247" width="2000" xmlns="http://www.w3.org/2000/svg" xmlns:xlink="http://www.w3.org/1999/xlink"><g id="tight-bounds" transform="matrix(1,0,0,1,0.2400000000000091,-0.09999133891446377)"><svg viewBox="0 0 395.52 247.2" height="247.2" width="395.52"><g><svg></svg></g><g><svg viewBox="0 0 395.52 247.2" height="247.2" width="395.52"><mask id="2b1af310-1cbc-4e3e-a4eb-e4a36ee48dea"><rect width="395.52" height="247.2" fill="white"></rect><g transform="matrix(1,0,0,1,0,77.77364374661613)" id="clone"><svg viewBox="0 0 395.52 91.65271250676773" height="91.65271250676773" width="395.52"><g><svg viewBox="0 0 395.52 91.65271250676773" height="91.65271250676773" width="395.52"><g><svg viewBox="0 0 395.52 91.65271250676773" height="91.65271250676773" width="395.52"><g><svg viewBox="0 0 395.52 91.65271250676773" height="91.65271250676773" width="395.52"><g id="SvgjsG1022"><svg viewBox="0 0 395.52 91.65271250676773" height="91.65271250676773" width="395.52" id="SvgjsSvg1021"><g><svg viewBox="0 0 395.52 91.65271250676773" height="91.65271250676773" width="395.52"><g transform="matrix(1,0,0,1,0,0)"><svg width="395.52" viewBox="-2.35 -39.8 185.69 43.8" height="91.65271250676773" data-palette-color="#1e55b3"><path d="M26.5-6.65L27.6-3.65 17.55 0.8Q9.8 0.95 5.23-3.65 0.65-8.25 0.65-15.95L0.65-15.95Q0.65-23.7 5.15-28.7 9.65-33.7 16.8-33.7L16.8-33.7Q22.5-33.7 26.75-30.6L26.75-30.6 26.7-30.45 26.75-29.05Q26.75-25.3 25.75-22.2L25.75-22.2 21.95-22.2 21.15-27.95Q17.75-29.7 13.7-29.7L13.7-29.7 12.5-29.65Q9.7-27.85 8.4-24.43 7.1-21 7.1-17.15L7.1-17.15Q7.1-11 10.23-7.33 13.35-3.65 18.55-3.95L18.55-3.95 26.5-6.65ZM28.25-11.9L28.25-11.9Q28.25-17.5 31.57-21.05 34.9-24.6 39.95-24.6 45-24.6 48.22-21.03 51.45-17.45 51.45-11.65L51.45-11.65Q51.45-5.9 48.27-2.45 45.1 1 40.1 1L40.1 1Q34.95 1 31.6-2.63 28.25-6.25 28.25-11.9ZM42.65-3L42.65-3Q45.4-4.85 45.4-11.1L45.4-11.1Q45.4-15.4 43.97-18.18 42.55-20.95 39.6-20.95L39.6-20.95Q37.7-20.95 36.4-20L36.4-20Q34.35-17.45 34.35-12.25L34.35-12.25Q34.35-8.15 35.9-5.4 37.45-2.65 40.55-2.65L40.55-2.65Q41.55-2.65 42.65-3ZM79.45-4.2L80.05-2 74.5 0.8Q73.45 0.7 72.17-0.45 70.9-1.6 70.3-3.1L70.3-3.1 64.75 0.8Q59.84 0.85 56.62-2.73 53.4-6.3 53.4-11.65L53.4-11.65Q53.4-17.2 57.07-20.9 60.75-24.6 66.25-24.6L66.25-24.6Q68.2-24.6 69.95-24.05L69.95-24.05 69.95-32.65 66.2-32.75 65.7-35.15Q69.15-36.55 73.55-36.8L73.55-36.8 75.8-34.75 75.8-4.9Q75.8-3.85 77.09-3.85L77.09-3.85 79.45-4.2ZM59.55-12.35L59.55-12.35Q59.55-8.8 61.22-6.43 62.9-4.05 65.7-4.05L65.7-4.05Q67.59-4.05 69.95-5.3L69.95-5.3 69.95-19.2Q67.45-20.9 64.45-20.9L64.45-20.9 62.84-20.75Q59.55-17.85 59.55-12.35ZM99.14-12.4L86.39-12.6Q86.39-8.35 88.62-6 90.84-3.65 94.29-3.65L94.29-3.65Q96.99-3.65 100.69-5.35L100.69-5.35 101.59-3 93.79 0.7Q87.99 1 84.27-2.45 80.54-5.9 80.54-11.45L80.54-11.45Q80.54-16.85 84.02-20.73 87.49-24.6 92.44-24.6L92.44-24.6Q96.64-24.6 99.37-21.98 102.09-19.35 102.04-15.2L102.04-15.2 99.14-12.4ZM90.29-21.2L90.29-21.2Q87.64-19.7 86.74-15.6L86.74-15.6 96.49-16.1Q96.09-18.4 94.37-19.83 92.64-21.25 90.29-21.2ZM134.99-2.9L138.59-2.45 138.54 0 123.99 0 123.69-1.6Q125.34-2.5 128.29-3.5L128.29-3.5 125.94-9.55 113.24-9.55 110.74-3.1 115.64-2.45 115.59 0 102.34 0 102.04-1.6Q103.84-2.55 106.19-3.35L106.19-3.35 117.59-31.1 117.09-32.35 122.34-33.9 134.99-2.9ZM114.54-13L124.59-13 119.59-25.95 114.54-13ZM159.39-23.05L159.39-23.05Q159.49-18.75 158.04-14.25L158.04-14.25 154.79-14.25 153.99-19.85Q150.59-17.6 148.09-14.45L148.09-14.45 148.09-3.75Q151.84-3.25 153.29-2.4L153.29-2.4 153.09 0 138.74 0 138.54-1.7Q140.14-2.5 142.24-3.15L142.24-3.15 142.24-20.35 138.49-20.4 137.99-22.8Q141.44-24.2 145.84-24.45L145.84-24.45 148.09-22.45 148.09-18.2 153.19-23.75Q154.39-24.25 155.74-24.25L155.74-24.25Q157.89-24.25 159.39-23.05ZM179.94-2.5L172.99 0.7 172.04 0.75Q166.74 0.75 163.44-2.78 160.14-6.3 160.14-11.8L160.14-11.8Q160.14-17.35 163.49-20.98 166.84-24.6 171.94-24.6L171.94-24.6Q177.49-24.6 180.34-20.25L180.34-20.25 176.29-16.6Q172.79-20.3 168.89-21L168.89-21Q166.04-17.7 166.04-12.9L166.04-12.9Q166.04-8.75 168.06-6.15 170.09-3.55 173.69-3.55L173.69-3.55Q176.14-3.55 178.99-4.85L178.99-4.85 179.94-2.5Z" opacity="1" transform="matrix(1,0,0,1,0,0)" fill="black" class="wordmark-text-0" id="SvgjsPath1020" stroke-width="5" stroke="black" stroke-linejoin="round"></path></svg></g></svg></g></svg></g></svg></g><g></g></svg></g></svg></g></svg></g></mask><g mask="url(#2b1af310-1cbc-4e3e-a4eb-e4a36ee48dea)"><g><path d="M286.43 193.802l7.881 21.496-72.01 31.885c-37.02 0.717-66.445-9.912-88.276-31.885-21.878-21.973-32.817-51.351-32.816-88.132v0c0-37.02 10.748-67.472 32.243-91.357 21.496-23.884 49.321-35.826 83.475-35.826v0c27.228 0 50.992 7.404 71.294 22.212v0l-0.358 1.075 0.358 10.031c0 17.913-2.388 34.274-7.165 49.082v0h-27.228l-5.732-41.2c-16.241-8.359-34.035-12.539-53.381-12.539v0l-8.598 0.358c-13.375 8.598-23.168 21.066-29.378 37.403-6.21 16.384-9.315 33.772-9.315 52.162v0c0 29.377 7.476 52.832 22.427 70.363 14.904 17.579 34.775 25.651 59.615 24.218v0z" fill="#ffffff" fill-rule="nonzero" stroke="none" stroke-width="1" stroke-linecap="butt" stroke-linejoin="miter" stroke-miterlimit="10" stroke-dasharray="" stroke-dashoffset="0" font-family="none" font-weight="none" font-size="none" text-anchor="none" style="mix-blend-mode: normal" data-fill-palette-color="tertiary"></path></g></g><g transform="matrix(1,0,0,1,0,77.77364374661613)"><svg viewBox="0 0 395.52 91.65271250676773" height="91.65271250676773" width="395.52"><g><svg viewBox="0 0 395.52 91.65271250676773" height="91.65271250676773" width="395.52"><g><svg viewBox="0 0 395.52 91.65271250676773" height="91.65271250676773" width="395.52"><g><svg viewBox="0 0 395.52 91.65271250676773" height="91.65271250676773" width="395.52"><g id="textblocktransform"><svg viewBox="0 0 395.52 91.65271250676773" height="91.65271250676773" width="395.52" id="textblock"><g><svg viewBox="0 0 395.52 91.65271250676773" height="91.65271250676773" width="395.52"><g transform="matrix(1,0,0,1,0,0)"><svg width="395.52" viewBox="-2.35 -39.8 185.69 43.8" height="91.65271250676773" data-palette-color="#1e55b3"><path d="M26.5-6.65L27.6-3.65 17.55 0.8Q9.8 0.95 5.23-3.65 0.65-8.25 0.65-15.95L0.65-15.95Q0.65-23.7 5.15-28.7 9.65-33.7 16.8-33.7L16.8-33.7Q22.5-33.7 26.75-30.6L26.75-30.6 26.7-30.45 26.75-29.05Q26.75-25.3 25.75-22.2L25.75-22.2 21.95-22.2 21.15-27.95Q17.75-29.7 13.7-29.7L13.7-29.7 12.5-29.65Q9.7-27.85 8.4-24.43 7.1-21 7.1-17.15L7.1-17.15Q7.1-11 10.23-7.33 13.35-3.65 18.55-3.95L18.55-3.95 26.5-6.65ZM28.25-11.9L28.25-11.9Q28.25-17.5 31.57-21.05 34.9-24.6 39.95-24.6 45-24.6 48.22-21.03 51.45-17.45 51.45-11.65L51.45-11.65Q51.45-5.9 48.27-2.45 45.1 1 40.1 1L40.1 1Q34.95 1 31.6-2.63 28.25-6.25 28.25-11.9ZM42.65-3L42.65-3Q45.4-4.85 45.4-11.1L45.4-11.1Q45.4-15.4 43.97-18.18 42.55-20.95 39.6-20.95L39.6-20.95Q37.7-20.95 36.4-20L36.4-20Q34.35-17.45 34.35-12.25L34.35-12.25Q34.35-8.15 35.9-5.4 37.45-2.65 40.55-2.65L40.55-2.65Q41.55-2.65 42.65-3ZM79.45-4.2L80.05-2 74.5 0.8Q73.45 0.7 72.17-0.45 70.9-1.6 70.3-3.1L70.3-3.1 64.75 0.8Q59.84 0.85 56.62-2.73 53.4-6.3 53.4-11.65L53.4-11.65Q53.4-17.2 57.07-20.9 60.75-24.6 66.25-24.6L66.25-24.6Q68.2-24.6 69.95-24.05L69.95-24.05 69.95-32.65 66.2-32.75 65.7-35.15Q69.15-36.55 73.55-36.8L73.55-36.8 75.8-34.75 75.8-4.9Q75.8-3.85 77.09-3.85L77.09-3.85 79.45-4.2ZM59.55-12.35L59.55-12.35Q59.55-8.8 61.22-6.43 62.9-4.05 65.7-4.05L65.7-4.05Q67.59-4.05 69.95-5.3L69.95-5.3 69.95-19.2Q67.45-20.9 64.45-20.9L64.45-20.9 62.84-20.75Q59.55-17.85 59.55-12.35ZM99.14-12.4L86.39-12.6Q86.39-8.35 88.62-6 90.84-3.65 94.29-3.65L94.29-3.65Q96.99-3.65 100.69-5.35L100.69-5.35 101.59-3 93.79 0.7Q87.99 1 84.27-2.45 80.54-5.9 80.54-11.45L80.54-11.45Q80.54-16.85 84.02-20.73 87.49-24.6 92.44-24.6L92.44-24.6Q96.64-24.6 99.37-21.98 102.09-19.35 102.04-15.2L102.04-15.2 99.14-12.4ZM90.29-21.2L90.29-21.2Q87.64-19.7 86.74-15.6L86.74-15.6 96.49-16.1Q96.09-18.4 94.37-19.83 92.64-21.25 90.29-21.2ZM134.99-2.9L138.59-2.45 138.54 0 123.99 0 123.69-1.6Q125.34-2.5 128.29-3.5L128.29-3.5 125.94-9.55 113.24-9.55 110.74-3.1 115.64-2.45 115.59 0 102.34 0 102.04-1.6Q103.84-2.55 106.19-3.35L106.19-3.35 117.59-31.1 117.09-32.35 122.34-33.9 134.99-2.9ZM114.54-13L124.59-13 119.59-25.95 114.54-13ZM159.39-23.05L159.39-23.05Q159.49-18.75 158.04-14.25L158.04-14.25 154.79-14.25 153.99-19.85Q150.59-17.6 148.09-14.45L148.09-14.45 148.09-3.75Q151.84-3.25 153.29-2.4L153.29-2.4 153.09 0 138.74 0 138.54-1.7Q140.14-2.5 142.24-3.15L142.24-3.15 142.24-20.35 138.49-20.4 137.99-22.8Q141.44-24.2 145.84-24.45L145.84-24.45 148.09-22.45 148.09-18.2 153.19-23.75Q154.39-24.25 155.74-24.25L155.74-24.25Q157.89-24.25 159.39-23.05ZM179.94-2.5L172.99 0.7 172.04 0.75Q166.74 0.75 163.44-2.78 160.14-6.3 160.14-11.8L160.14-11.8Q160.14-17.35 163.49-20.98 166.84-24.6 171.94-24.6L171.94-24.6Q177.49-24.6 180.34-20.25L180.34-20.25 176.29-16.6Q172.79-20.3 168.89-21L168.89-21Q166.04-17.7 166.04-12.9L166.04-12.9Q166.04-8.75 168.06-6.15 170.09-3.55 173.69-3.55L173.69-3.55Q176.14-3.55 178.99-4.85L178.99-4.85 179.94-2.5Z" opacity="1" transform="matrix(1,0,0,1,0,0)" fill="#ffffff" class="wordmark-text-0" data-fill-palette-color="primary" id="text-0"></path></svg></g></svg></g></svg></g></svg></g><g></g></svg></g></svg></g></svg></g></svg></g><defs></defs></svg><rect width="395.52" height="247.2" fill="none" stroke="none" visibility="hidden"></rect></g></svg></g></svg>